<svg version="1.1" id="Layer_1" xmlns="http://www.w3.org/2000/svg" xmlns:xlink="http://www.w3.org/1999/xlink" x="0px" y="0px"
	 width="100%" viewBox="0 0 2048 2048" enable-background="new 0 0 2048 2048" xml:space="preserve">
<path fill="#4783de" opacity="1.000000" stroke="none" 
	d="
M1360.000000,2049.000000 
	C906.666687,2049.000000 453.833344,2049.000000 1.000000,2049.000000 
	C1.000000,1366.333374 1.000000,683.666687 1.000000,1.000000 
	C683.666687,1.000000 1366.333374,1.000000 2049.000000,1.000000 
	C2049.000000,683.666687 2049.000000,1366.333374 2049.000000,2049.000000 
	C1819.500000,2049.000000 1590.000000,2049.000000 1360.000000,2049.000000 
M917.700317,1676.851562 
	C923.300903,1677.627075 928.879883,1678.657471 934.505737,1679.134399 
	C961.829285,1681.450562 989.132812,1684.639282 1016.507507,1685.514526 
	C1038.228394,1686.209351 1060.144287,1685.018799 1081.788452,1682.832275 
	C1108.549072,1680.129150 1135.359985,1676.745972 1161.719482,1671.497803 
	C1216.488281,1660.593628 1268.800049,1642.036865 1318.852051,1617.171997 
	C1386.910034,1583.361816 1447.366699,1539.219604 1500.223633,1484.593018 
	C1528.917969,1454.937988 1554.615967,1422.921387 1577.251831,1388.451904 
	C1608.300415,1341.171509 1632.879761,1290.724609 1651.055908,1237.140991 
	C1672.881592,1172.797852 1684.384277,1106.565674 1685.528931,1038.760132 
	C1686.013672,1010.046265 1684.207031,981.172852 1681.492188,952.556946 
	C1678.158936,917.420959 1671.003418,882.846802 1661.452759,848.791626 
	C1639.914307,771.992126 1605.741211,701.389343 1558.766724,636.912537 
	C1516.508179,578.908875 1466.018311,529.234436 1407.625854,487.684692 
	C1358.660400,452.842865 1305.761963,425.285797 1249.134155,405.036255 
	C1206.707275,389.864777 1163.231323,378.979156 1118.549927,372.800385 
	C1088.499512,368.644806 1058.346924,366.037720 1028.038818,366.279358 
	C1008.592346,366.434387 989.055481,367.028107 969.741089,369.111969 
	C943.150146,371.980927 916.501282,375.280792 890.285767,380.462799 
	C833.646973,391.658478 779.670593,411.076111 728.162231,437.151428 
	C666.926758,468.150909 611.841919,507.816315 562.891479,555.918945 
	C536.951050,581.410034 513.380920,608.978577 491.998474,638.415222 
	C459.438232,683.240234 432.924316,731.395386 412.570709,782.908813 
	C393.349121,831.557068 379.435272,881.678833 372.990448,933.644592 
	C369.944427,958.204895 367.157013,982.919434 366.522217,1007.622498 
	C365.873840,1032.854736 367.232483,1058.217529 369.159210,1083.412476 
	C370.791199,1104.753662 373.583344,1126.102539 377.444031,1147.158081 
	C388.337982,1206.572266 407.382629,1263.362915 434.087250,1317.608398 
	C465.399536,1381.213501 506.014435,1438.179443 555.583374,1488.759521 
	C584.090698,1517.848267 615.188293,1543.928711 648.612366,1567.247437 
	C694.326294,1599.140137 743.326843,1624.713867 795.509583,1644.234131 
	C834.905945,1658.971313 875.384888,1669.673706 917.700317,1676.851562 
z"/>
<path fill="#FFFFFF" opacity="1.000000" stroke="none" 
	d="
M917.274475,1676.769653 
	C875.384888,1669.673706 834.905945,1658.971313 795.509583,1644.234131 
	C743.326843,1624.713867 694.326294,1599.140137 648.612366,1567.247437 
	C615.188293,1543.928711 584.090698,1517.848267 555.583374,1488.759521 
	C506.014435,1438.179443 465.399536,1381.213501 434.087250,1317.608398 
	C407.382629,1263.362915 388.337982,1206.572266 377.444031,1147.158081 
	C373.583344,1126.102539 370.791199,1104.753662 369.159210,1083.412476 
	C367.232483,1058.217529 365.873840,1032.854736 366.522217,1007.622498 
	C367.157013,982.919434 369.944427,958.204895 372.990448,933.644592 
	C379.435272,881.678833 393.349121,831.557068 412.570709,782.908813 
	C432.924316,731.395386 459.438232,683.240234 491.998474,638.415222 
	C513.380920,608.978577 536.951050,581.410034 562.891479,555.918945 
	C611.841919,507.816315 666.926758,468.150909 728.162231,437.151428 
	C779.670593,411.076111 833.646973,391.658478 890.285767,380.462799 
	C916.501282,375.280792 943.150146,371.980927 969.741089,369.111969 
	C989.055481,367.028107 1008.592346,366.434387 1028.038818,366.279358 
	C1058.346924,366.037720 1088.499512,368.644806 1118.549927,372.800385 
	C1163.231323,378.979156 1206.707275,389.864777 1249.134155,405.036255 
	C1305.761963,425.285797 1358.660400,452.842865 1407.625854,487.684692 
	C1466.018311,529.234436 1516.508179,578.908875 1558.766724,636.912537 
	C1605.741211,701.389343 1639.914307,771.992126 1661.452759,848.791626 
	C1671.003418,882.846802 1678.158936,917.420959 1681.492188,952.556946 
	C1684.207031,981.172852 1686.013672,1010.046265 1685.528931,1038.760132 
	C1684.384277,1106.565674 1672.881592,1172.797852 1651.055908,1237.140991 
	C1632.879761,1290.724609 1608.300415,1341.171509 1577.251831,1388.451904 
	C1554.615967,1422.921387 1528.917969,1454.937988 1500.223633,1484.593018 
	C1447.366699,1539.219604 1386.910034,1583.361816 1318.852051,1617.171997 
	C1268.800049,1642.036865 1216.488281,1660.593628 1161.719482,1671.497803 
	C1135.359985,1676.745972 1108.549072,1680.129150 1081.788452,1682.832275 
	C1060.144287,1685.018799 1038.228394,1686.209351 1016.507507,1685.514526 
	C989.132812,1684.639282 961.829285,1681.450562 934.505737,1679.134399 
	C928.879883,1678.657471 923.300903,1677.627075 917.274475,1676.769653 
M895.249268,1284.799438 
	C895.873657,1285.027466 896.521667,1285.205933 897.118958,1285.490845 
	C948.133728,1309.813110 1001.621216,1320.266724 1058.115723,1314.868042 
	C1078.422119,1312.927368 1098.277222,1309.197754 1117.750488,1303.236206 
	C1173.900513,1286.046631 1220.879272,1255.018921 1258.452026,1209.861450 
	C1278.209473,1186.115479 1293.676270,1159.838135 1304.844238,1131.001587 
	C1314.403320,1106.319092 1320.288940,1080.866821 1323.104736,1054.526978 
	C1325.674683,1030.484985 1324.829590,1006.672546 1321.135132,982.889282 
	C1319.631104,973.206726 1317.691772,963.591736 1316.327515,953.404907 
	C1316.930420,952.836914 1317.568726,952.301697 1318.131226,951.696167 
	C1343.058350,924.865356 1366.644531,896.918640 1388.210327,867.298462 
	C1410.689575,836.423645 1431.506714,804.572998 1443.822144,768.045227 
	C1448.661621,753.691040 1452.183594,739.022034 1449.983276,723.553650 
	C1447.083862,703.170471 1435.466431,690.710510 1416.052368,684.833679 
	C1397.541382,679.230164 1378.790894,680.484558 1360.212646,683.462280 
	C1334.541504,687.576965 1309.762085,695.295044 1285.431274,704.393555 
	C1249.862915,717.694397 1215.659180,733.995483 1182.115112,751.713684 
	C1175.530151,755.191895 1169.197266,759.147278 1162.056763,762.922119 
	C1124.663696,743.855164 1085.026245,733.003296 1043.146362,730.127319 
	C1020.444946,728.568481 997.897156,729.979370 975.521362,733.586609 
	C931.803772,740.634460 891.430237,756.523560 855.114868,781.874634 
	C799.084473,820.988403 760.958740,873.338135 741.274048,938.908325 
	C735.219910,959.074829 731.486511,979.749573 730.397217,1000.721497 
	C729.648438,1015.137390 729.787476,1029.737427 731.197571,1044.091187 
	C732.834290,1060.752563 736.295105,1077.234741 738.426575,1094.215820 
	C737.229187,1095.369995 735.925720,1096.433472 734.850159,1097.691772 
	C715.290039,1120.573853 695.134949,1142.982788 676.371216,1166.501465 
	C651.101318,1198.175049 628.398376,1231.658691 612.595093,1269.262573 
	C605.541443,1286.046509 600.326965,1303.316528 600.864075,1321.924316 
	C601.524048,1344.788574 614.728149,1361.367188 636.818481,1366.980713 
	C652.283997,1370.910889 667.881348,1370.688965 683.422791,1368.679932 
	C710.747803,1365.147827 737.076050,1357.430298 762.856628,1347.899414 
	C797.397278,1335.129883 830.796997,1319.766235 863.355103,1302.594482 
	C873.921509,1297.021729 884.164185,1290.835205 895.249268,1284.799438 
z"/>
<path fill="#000000" opacity="1.000000" stroke="none" 
	d="
M1315.950439,953.946045 
	C1317.691772,963.591736 1319.631104,973.206726 1321.135132,982.889282 
	C1324.829590,1006.672546 1325.674683,1030.484985 1323.104736,1054.526978 
	C1320.288940,1080.866821 1314.403320,1106.319092 1304.844238,1131.001587 
	C1293.676270,1159.838135 1278.209473,1186.115479 1258.452026,1209.861450 
	C1220.879272,1255.018921 1173.900513,1286.046631 1117.750488,1303.236206 
	C1098.277222,1309.197754 1078.422119,1312.927368 1058.115723,1314.868042 
	C1001.621216,1320.266724 948.133728,1309.813110 897.118958,1285.490845 
	C896.521667,1285.205933 895.873657,1285.027466 894.762939,1284.520020 
	C891.542664,1282.668701 888.839600,1281.040039 886.070068,1279.533569 
	C828.172974,1248.041992 785.007141,1202.499268 757.213135,1142.812744 
	C749.876343,1127.057251 744.980713,1110.164917 738.964111,1093.794678 
	C736.295105,1077.234741 732.834290,1060.752563 731.197571,1044.091187 
	C729.787476,1029.737427 729.648438,1015.137390 730.397217,1000.721497 
	C731.486511,979.749573 735.219910,959.074829 741.274048,938.908325 
	C760.958740,873.338135 799.084473,820.988403 855.114868,781.874634 
	C891.430237,756.523560 931.803772,740.634460 975.521362,733.586609 
	C997.897156,729.979370 1020.444946,728.568481 1043.146362,730.127319 
	C1085.026245,733.003296 1124.663696,743.855164 1162.616699,763.201721 
	C1174.924072,770.711975 1187.102905,777.332214 1198.346313,785.276306 
	C1254.671021,825.072327 1292.681885,878.193665 1312.680298,944.204041 
	C1313.672974,947.480896 1314.855957,950.700012 1315.950439,953.946045 
z"/>
<path fill="#ff1c82" opacity="1.000000" stroke="none" 
	d="
M738.695374,1094.005249 
	C744.980713,1110.164917 749.876343,1127.057251 757.213135,1142.812744 
	C785.007141,1202.499268 828.172974,1248.041992 886.070068,1279.533569 
	C888.839600,1281.040039 891.542664,1282.668701 894.415833,1284.584961 
	C884.164185,1290.835205 873.921509,1297.021729 863.355103,1302.594482 
	C830.796997,1319.766235 797.397278,1335.129883 762.856628,1347.899414 
	C737.076050,1357.430298 710.747803,1365.147827 683.422791,1368.679932 
	C667.881348,1370.688965 652.283997,1370.910889 636.818481,1366.980713 
	C614.728149,1361.367188 601.524048,1344.788574 600.864075,1321.924316 
	C600.326965,1303.316528 605.541443,1286.046509 612.595093,1269.262573 
	C628.398376,1231.658691 651.101318,1198.175049 676.371216,1166.501465 
	C695.134949,1142.982788 715.290039,1120.573853 734.850159,1097.691772 
	C735.925720,1096.433472 737.229187,1095.369995 738.695374,1094.005249 
z"/>
<path fill="#ff1c82" opacity="1.000000" stroke="none" 
	d="
M1316.138916,953.675476 
	C1314.855957,950.700012 1313.672974,947.480896 1312.680298,944.204041 
	C1292.681885,878.193665 1254.671021,825.072327 1198.346313,785.276306 
	C1187.102905,777.332214 1174.924072,770.711975 1162.962402,763.182007 
	C1169.197266,759.147278 1175.530151,755.191895 1182.115112,751.713684 
	C1215.659180,733.995483 1249.862915,717.694397 1285.431274,704.393555 
	C1309.762085,695.295044 1334.541504,687.576965 1360.212646,683.462280 
	C1378.790894,680.484558 1397.541382,679.230164 1416.052368,684.833679 
	C1435.466431,690.710510 1447.083862,703.170471 1449.983276,723.553650 
	C1452.183594,739.022034 1448.661621,753.691040 1443.822144,768.045227 
	C1431.506714,804.572998 1410.689575,836.423645 1388.210327,867.298462 
	C1366.644531,896.918640 1343.058350,924.865356 1318.131226,951.696167 
	C1317.568726,952.301697 1316.930420,952.836914 1316.138916,953.675476 
z"/>
</svg>