<svg width="512" height="512" viewBox="0 0 512 512" fill="none" xmlns="http://www.w3.org/2000/svg">
  <style>
    circle {
      color: black
    }
    @media (prefers-color-scheme: light) {
      circle {
        color: white
      }
    }
    path {
      color: white
    }
    @media (prefers-color-scheme: light) {
      path {
        color: black
      }
    }
  </style>
<!-- <circle cx="256" cy="256" r="256" fill="currentColor"/> -->
<path fill-rule="evenodd" clip-rule="evenodd" d="M257.199 67.754C242.864 69.0561 223.39 73.1998 210.526 77.6873C203.533 80.1262 189.971 86.8439 179.521 93.0459C165.112 101.597 147.975 118.136 137.969 133.151C126.227 150.769 121.193 166.992 121.197 187.203C121.202 216.065 132.445 243.216 150.254 257.373C163.633 268.007 178.859 273.5 204.431 276.918L206.968 277.257L207.489 287.524C208.108 299.735 209.241 302.879 213.535 304.295C216.166 305.162 222.34 304.957 223.329 303.969C223.553 303.745 223.115 302.614 222.355 301.455C221.374 299.96 220.845 296.845 220.533 290.744C220.121 282.694 220.193 282.141 221.644 282.137C226.424 282.123 255.661 280.381 263.344 279.651L272.356 278.795L277.272 273.969L282.189 269.145L284.123 270.732C286.473 272.661 294.601 272.917 299.496 271.216C305.513 269.127 307.178 268.912 307.178 270.229C307.178 272.206 309.989 273.138 315.955 273.138C319.863 273.138 322.153 272.725 323.513 271.773C324.876 270.819 326.85 270.465 330.071 270.596C332.644 270.701 336.381 270.207 338.531 269.478C341.886 268.34 342.622 268.321 344.239 269.336C348.567 272.047 356.471 271.553 359.9 268.357C361.449 266.914 362.162 266.807 365.735 267.478C370.832 268.438 377.42 267.306 382.655 264.571L386.506 262.56L387.809 264.546C389.308 266.832 389.479 267.732 388.273 266.987C387.811 266.703 386.319 266.714 384.956 267.013C381.375 267.799 383.186 269.538 388.794 270.701C392.698 271.511 394.677 271.356 404.365 269.481C415.215 267.381 433.816 262.423 436.509 260.912C437.749 260.217 437.74 260.106 436.402 259.59C435.557 259.266 430.194 260.426 423.702 262.337C412.88 265.523 405.045 267.409 402.63 267.409C401.997 267.409 400.904 266.198 400.2 264.717C399.497 263.237 397.794 260.659 396.415 258.988C394.057 256.131 393.633 255.952 389.257 255.963C383.919 255.978 381.355 257.05 383.377 258.422C384.439 259.143 384.385 259.433 382.967 260.561C382.066 261.279 379.358 262.788 376.949 263.915C371.554 266.438 368.629 265.691 368.629 261.789C368.629 259.704 368.262 259.338 365.692 258.856C362.338 258.228 357.844 258.995 356.988 260.343C356.669 260.844 356.94 262.066 357.591 263.057C358.686 264.728 358.595 264.986 356.352 266.581L353.931 268.303L353.509 266.424C353.278 265.39 353.174 263.255 353.279 261.68L353.471 258.815L349.008 258.563C341.933 258.161 340.906 258.663 340.613 262.671C340.371 265.989 340.227 266.151 336.508 267.3C332.103 268.662 330.12 267.803 330.12 264.532C330.12 262.545 328.733 261.68 325.546 261.68C324.457 261.68 323.565 261.312 323.565 260.861C323.565 260.411 321.814 260.045 319.673 260.046C315.227 260.05 311.505 261.966 308.773 265.657C307.733 267.062 306.485 267.911 305.829 267.659C304.85 267.283 300.361 268.101 295.549 269.533C294.402 269.873 294.118 269.263 293.911 266.017L293.659 262.089L288.393 261.842L283.128 261.594L276.513 268.115L269.898 274.636L257.833 275.213C251.196 275.53 242.988 275.529 239.593 275.211L233.419 274.633L245.095 266.847C257.873 258.326 272.555 247.492 278.811 241.969C284.68 236.787 291.056 228.88 290.12 227.944C289.69 227.515 286.388 226.962 282.783 226.715L276.228 226.267L271.426 231.492C258.728 245.311 250.381 253.382 243.162 258.821C234.434 265.397 223.427 272.319 221.7 272.319C220.791 272.319 220.6 268.831 220.662 253.328L220.738 234.335L218.133 233.583C216.701 233.17 213.897 233.076 211.902 233.375L208.275 233.918L207.849 253.972C207.614 265.002 207.228 274.22 206.99 274.457C206.31 275.137 192.061 272.475 186.671 270.661C172.869 266.017 160.888 258.029 152.94 248.175C146.033 239.61 139.611 224.626 136.278 209.3C134.289 200.15 133.847 180.376 135.42 170.834C142.949 125.143 186.377 84.5776 240.032 73.1172C255.603 69.7911 263.943 69.097 282.851 69.557C316.928 70.3844 346.494 77.436 380.163 92.7644C406.514 104.76 429.5 120.361 448.158 138.911C464.403 155.062 474.194 169.075 482.214 187.651C490.087 205.883 493.294 221.259 493.304 240.81C493.316 262.796 490.173 277.512 481.771 294.826C475.396 307.964 468.736 317.052 455.495 330.684C431.626 355.257 406.032 370.695 366.58 384.313C345.345 391.644 336.766 393.447 323.123 393.447C311.518 393.447 306.568 392.518 299.395 388.995C291.613 385.172 287.403 380.612 282.248 370.42L277.957 361.937H273.928H269.898L269.653 366.179C269.436 369.907 268.998 370.829 266.021 373.803C261.941 377.878 247.574 387.593 240.083 391.342C232.259 395.257 211.936 402.914 203.01 405.308C184.175 410.361 170.809 411.967 157.969 410.722C147.685 409.725 142.26 407.857 133.998 402.469C125.941 397.215 121.934 393.511 116.265 386.072C105.363 371.765 102.459 361.282 104.148 342.329C104.804 334.966 105.357 332.246 106.347 331.515C108.38 330.014 106.422 328.627 101.617 328.167C96.2528 327.652 93.6318 328.371 93.0714 330.512C92.6281 332.207 92.3585 332.237 82.5273 331.681C69.3827 330.938 62.2741 329.456 55.2269 325.992C43.1818 320.071 35.4506 309.122 31.7767 292.78C29.2547 281.566 29.2941 262.114 31.8611 250.648C37.6661 224.725 52.7362 199.064 73.2852 180.114C81.6334 172.416 94.3495 162.864 97.0181 162.288C97.9194 162.093 99.7244 161.706 101.029 161.428C105.033 160.574 102.089 158.975 96.6469 159.049C88.7403 159.156 77.9931 165.492 62.2356 179.335C40.46 198.467 23.8201 226.441 18.3682 253.086C16.5419 262.01 16.5443 281.903 18.3731 290.734C20.0396 298.783 23.866 308.183 27.317 312.702C30.605 317.008 38.0356 323.003 44.061 326.211C53.113 331.03 67.3622 333.657 84.6191 333.688C92.6215 333.702 92.6969 333.72 92.1357 335.543C90.9861 339.279 90.6584 357.783 91.6572 362.587C93.8514 373.143 105.317 390.141 115.149 397.415C132.431 410.201 145.259 413.819 169.879 412.852C187.721 412.151 205.064 408.256 226.064 400.23C232.598 397.733 240.156 394.584 242.86 393.231C249.093 390.114 262.743 381.038 267.532 376.827C269.549 375.054 271.288 373.741 271.398 373.909C277.899 383.866 285.49 389.442 297.346 392.967C308.008 396.138 333.297 396.145 347.407 392.981C350.743 392.234 362.32 388.501 373.135 384.687C409.86 371.736 433.281 357.624 456.319 334.563C479.242 311.617 490.017 291.733 494.926 263.317C495.543 259.747 495.992 250.502 496 241.219C496.011 227.817 495.714 223.774 494.143 215.984C488.656 188.769 476.235 164.517 456.767 143.008C445.932 131.036 428.074 116.365 412.873 106.948C396.177 96.6044 365.886 82.8303 348.555 77.702C319.264 69.0348 284.632 65.2635 257.199 67.754ZM320.211 269.547C319.012 270.99 318.43 270.567 319.125 268.759C319.409 268.021 319.988 267.633 320.413 267.896C320.874 268.181 320.792 268.848 320.211 269.547Z" fill="currentColor"/>
</svg>
